<?xml version="1.0" encoding="UTF-8"?>
<svg xmlns="http://www.w3.org/2000/svg" xmlns:xlink="http://www.w3.org/1999/xlink" width="396" height="252" viewBox="0 0 396 252">
<defs>
<g>
<g id="glyph-0-0">
<path d="M 0.28125 0 L 0.28125 -6.3125 L 5.296875 -6.3125 L 5.296875 0 Z M 4.5 -0.796875 L 4.5 -5.515625 L 1.078125 -5.515625 L 1.078125 -0.796875 Z M 4.5 -0.796875 "/>
</g>
<g id="glyph-0-1">
<path d="M 2.375 -6.15625 C 3.175781 -6.15625 3.753906 -5.828125 4.109375 -5.171875 C 4.378906 -4.660156 4.515625 -3.960938 4.515625 -3.078125 C 4.515625 -2.242188 4.390625 -1.554688 4.140625 -1.015625 C 3.785156 -0.222656 3.195312 0.171875 2.375 0.171875 C 1.632812 0.171875 1.082031 -0.148438 0.71875 -0.796875 C 0.425781 -1.328125 0.28125 -2.046875 0.28125 -2.953125 C 0.28125 -3.648438 0.367188 -4.25 0.546875 -4.75 C 0.878906 -5.6875 1.488281 -6.15625 2.375 -6.15625 Z M 2.375 -0.53125 C 2.769531 -0.53125 3.085938 -0.707031 3.328125 -1.0625 C 3.566406 -1.425781 3.6875 -2.085938 3.6875 -3.046875 C 3.6875 -3.753906 3.597656 -4.332031 3.421875 -4.78125 C 3.253906 -5.226562 2.921875 -5.453125 2.421875 -5.453125 C 1.972656 -5.453125 1.640625 -5.238281 1.421875 -4.8125 C 1.210938 -4.382812 1.109375 -3.753906 1.109375 -2.921875 C 1.109375 -2.296875 1.175781 -1.789062 1.3125 -1.40625 C 1.519531 -0.820312 1.875 -0.53125 2.375 -0.53125 Z M 2.375 -0.53125 "/>
</g>
<g id="glyph-0-2">
<path d="M 1.09375 -1.5625 C 1.132812 -1.125 1.335938 -0.820312 1.703125 -0.65625 C 1.878906 -0.570312 2.09375 -0.53125 2.34375 -0.53125 C 2.800781 -0.53125 3.140625 -0.675781 3.359375 -0.96875 C 3.578125 -1.257812 3.6875 -1.582031 3.6875 -1.9375 C 3.6875 -2.363281 3.554688 -2.691406 3.296875 -2.921875 C 3.035156 -3.160156 2.71875 -3.28125 2.34375 -3.28125 C 2.082031 -3.28125 1.851562 -3.226562 1.65625 -3.125 C 1.46875 -3.019531 1.304688 -2.878906 1.171875 -2.703125 L 0.5 -2.734375 L 0.96875 -6.046875 L 4.171875 -6.046875 L 4.171875 -5.296875 L 1.5625 -5.296875 L 1.296875 -3.59375 C 1.429688 -3.695312 1.566406 -3.773438 1.703125 -3.828125 C 1.929688 -3.929688 2.195312 -3.984375 2.5 -3.984375 C 3.0625 -3.984375 3.535156 -3.800781 3.921875 -3.4375 C 4.316406 -3.070312 4.515625 -2.609375 4.515625 -2.046875 C 4.515625 -1.460938 4.332031 -0.945312 3.96875 -0.5 C 3.613281 -0.0625 3.046875 0.15625 2.265625 0.15625 C 1.753906 0.15625 1.304688 0.0117188 0.921875 -0.265625 C 0.546875 -0.546875 0.332031 -0.976562 0.28125 -1.5625 Z M 1.09375 -1.5625 "/>
</g>
<g id="glyph-0-3">
<path d="M 0.84375 -4.359375 L 0.84375 -4.953125 C 1.394531 -5.003906 1.78125 -5.09375 2 -5.21875 C 2.226562 -5.34375 2.394531 -5.644531 2.5 -6.125 L 3.109375 -6.125 L 3.109375 0 L 2.296875 0 L 2.296875 -4.359375 Z M 0.84375 -4.359375 "/>
</g>
<g id="glyph-0-4">
<path d="M 3.046875 -3.640625 C 3.398438 -3.640625 3.679688 -3.691406 3.890625 -3.796875 C 4.203125 -3.953125 4.359375 -4.234375 4.359375 -4.640625 C 4.359375 -5.054688 4.191406 -5.335938 3.859375 -5.484375 C 3.660156 -5.554688 3.378906 -5.59375 3.015625 -5.59375 L 1.484375 -5.59375 L 1.484375 -3.640625 Z M 3.328125 -0.734375 C 3.847656 -0.734375 4.222656 -0.882812 4.453125 -1.1875 C 4.585938 -1.375 4.65625 -1.601562 4.65625 -1.875 C 4.65625 -2.332031 4.453125 -2.644531 4.046875 -2.8125 C 3.828125 -2.90625 3.539062 -2.953125 3.1875 -2.953125 L 1.484375 -2.953125 L 1.484375 -0.734375 Z M 0.65625 -6.3125 L 3.359375 -6.3125 C 4.097656 -6.3125 4.625 -6.085938 4.9375 -5.640625 C 5.113281 -5.378906 5.203125 -5.082031 5.203125 -4.75 C 5.203125 -4.351562 5.09375 -4.023438 4.875 -3.765625 C 4.75 -3.628906 4.578125 -3.503906 4.359375 -3.390625 C 4.679688 -3.273438 4.925781 -3.140625 5.09375 -2.984375 C 5.375 -2.703125 5.515625 -2.320312 5.515625 -1.84375 C 5.515625 -1.4375 5.390625 -1.066406 5.140625 -0.734375 C 4.753906 -0.242188 4.144531 0 3.3125 0 L 0.65625 0 Z M 0.65625 -6.3125 "/>
</g>
<g id="glyph-0-5">
<path d="M 0.5625 -4.578125 L 1.359375 -4.578125 L 1.359375 0 L 0.5625 0 Z M 0.5625 -6.3125 L 1.359375 -6.3125 L 1.359375 -5.4375 L 0.5625 -5.4375 Z M 0.5625 -6.3125 "/>
</g>
<g id="glyph-0-6">
<path d="M 0.59375 -4.59375 L 1.328125 -4.59375 L 1.328125 -3.8125 C 1.378906 -3.957031 1.523438 -4.140625 1.765625 -4.359375 C 2.003906 -4.585938 2.273438 -4.703125 2.578125 -4.703125 C 2.585938 -4.703125 2.609375 -4.695312 2.640625 -4.6875 C 2.679688 -4.6875 2.742188 -4.6875 2.828125 -4.6875 L 2.828125 -3.859375 C 2.773438 -3.867188 2.726562 -3.875 2.6875 -3.875 C 2.65625 -3.882812 2.617188 -3.890625 2.578125 -3.890625 C 2.179688 -3.890625 1.878906 -3.765625 1.671875 -3.515625 C 1.460938 -3.265625 1.359375 -2.972656 1.359375 -2.640625 L 1.359375 0 L 0.59375 0 Z M 0.59375 -4.59375 "/>
</g>
<g id="glyph-0-7">
<path d="M 1.0625 -2.25 C 1.0625 -1.75 1.164062 -1.332031 1.375 -1 C 1.582031 -0.675781 1.914062 -0.515625 2.375 -0.515625 C 2.726562 -0.515625 3.019531 -0.664062 3.25 -0.96875 C 3.488281 -1.28125 3.609375 -1.722656 3.609375 -2.296875 C 3.609375 -2.878906 3.488281 -3.304688 3.25 -3.578125 C 3.007812 -3.859375 2.710938 -4 2.359375 -4 C 1.972656 -4 1.660156 -3.847656 1.421875 -3.546875 C 1.179688 -3.253906 1.0625 -2.820312 1.0625 -2.25 Z M 2.21875 -4.6875 C 2.570312 -4.6875 2.867188 -4.609375 3.109375 -4.453125 C 3.242188 -4.367188 3.398438 -4.21875 3.578125 -4 L 3.578125 -6.328125 L 4.3125 -6.328125 L 4.3125 0 L 3.625 0 L 3.625 -0.640625 C 3.4375 -0.359375 3.21875 -0.15625 2.96875 -0.03125 C 2.726562 0.09375 2.453125 0.15625 2.140625 0.15625 C 1.617188 0.15625 1.171875 -0.0546875 0.796875 -0.484375 C 0.421875 -0.910156 0.234375 -1.484375 0.234375 -2.203125 C 0.234375 -2.867188 0.40625 -3.445312 0.75 -3.9375 C 1.09375 -4.4375 1.582031 -4.6875 2.21875 -4.6875 Z M 2.21875 -4.6875 "/>
</g>
<g id="glyph-0-8">
<path d="M 3.328125 -6.484375 C 4.128906 -6.484375 4.75 -6.269531 5.1875 -5.84375 C 5.625 -5.425781 5.867188 -4.953125 5.921875 -4.421875 L 5.09375 -4.421875 C 5 -4.828125 4.8125 -5.144531 4.53125 -5.375 C 4.25 -5.613281 3.851562 -5.734375 3.34375 -5.734375 C 2.71875 -5.734375 2.210938 -5.515625 1.828125 -5.078125 C 1.453125 -4.640625 1.265625 -3.972656 1.265625 -3.078125 C 1.265625 -2.335938 1.4375 -1.738281 1.78125 -1.28125 C 2.125 -0.820312 2.632812 -0.59375 3.3125 -0.59375 C 3.945312 -0.59375 4.429688 -0.832031 4.765625 -1.3125 C 4.929688 -1.570312 5.0625 -1.90625 5.15625 -2.3125 L 5.984375 -2.3125 C 5.910156 -1.65625 5.664062 -1.101562 5.25 -0.65625 C 4.75 -0.113281 4.070312 0.15625 3.21875 0.15625 C 2.488281 0.15625 1.875 -0.0625 1.375 -0.5 C 0.71875 -1.09375 0.390625 -2 0.390625 -3.21875 C 0.390625 -4.15625 0.632812 -4.921875 1.125 -5.515625 C 1.65625 -6.160156 2.390625 -6.484375 3.328125 -6.484375 Z M 3.15625 -6.484375 Z M 3.15625 -6.484375 "/>
</g>
<g id="glyph-0-9">
<path d="M 1.15625 -1.21875 C 1.15625 -1 1.238281 -0.820312 1.40625 -0.6875 C 1.570312 -0.5625 1.765625 -0.5 1.984375 -0.5 C 2.253906 -0.5 2.519531 -0.5625 2.78125 -0.6875 C 3.207031 -0.894531 3.421875 -1.238281 3.421875 -1.71875 L 3.421875 -2.34375 C 3.328125 -2.28125 3.203125 -2.226562 3.046875 -2.1875 C 2.898438 -2.144531 2.753906 -2.117188 2.609375 -2.109375 L 2.140625 -2.046875 C 1.867188 -2.003906 1.660156 -1.945312 1.515625 -1.875 C 1.273438 -1.738281 1.15625 -1.519531 1.15625 -1.21875 Z M 3.03125 -2.78125 C 3.207031 -2.8125 3.328125 -2.890625 3.390625 -3.015625 C 3.421875 -3.078125 3.4375 -3.175781 3.4375 -3.3125 C 3.4375 -3.570312 3.34375 -3.757812 3.15625 -3.875 C 2.96875 -4 2.703125 -4.0625 2.359375 -4.0625 C 1.953125 -4.0625 1.664062 -3.953125 1.5 -3.734375 C 1.40625 -3.609375 1.34375 -3.429688 1.3125 -3.203125 L 0.59375 -3.203125 C 0.601562 -3.765625 0.785156 -4.15625 1.140625 -4.375 C 1.492188 -4.601562 1.90625 -4.71875 2.375 -4.71875 C 2.914062 -4.71875 3.351562 -4.613281 3.6875 -4.40625 C 4.019531 -4.195312 4.1875 -3.875 4.1875 -3.4375 L 4.1875 -0.796875 C 4.1875 -0.710938 4.203125 -0.644531 4.234375 -0.59375 C 4.273438 -0.550781 4.347656 -0.53125 4.453125 -0.53125 C 4.484375 -0.53125 4.519531 -0.53125 4.5625 -0.53125 C 4.601562 -0.53125 4.648438 -0.535156 4.703125 -0.546875 L 4.703125 0.015625 C 4.578125 0.0546875 4.484375 0.078125 4.421875 0.078125 C 4.359375 0.0859375 4.273438 0.09375 4.171875 0.09375 C 3.898438 0.09375 3.707031 0 3.59375 -0.1875 C 3.53125 -0.28125 3.484375 -0.421875 3.453125 -0.609375 C 3.296875 -0.398438 3.070312 -0.21875 2.78125 -0.0625 C 2.488281 0.0820312 2.160156 0.15625 1.796875 0.15625 C 1.367188 0.15625 1.019531 0.0234375 0.75 -0.234375 C 0.488281 -0.492188 0.359375 -0.816406 0.359375 -1.203125 C 0.359375 -1.628906 0.488281 -1.957031 0.75 -2.1875 C 1.019531 -2.425781 1.367188 -2.578125 1.796875 -2.640625 Z M 2.390625 -4.71875 Z M 2.390625 -4.71875 "/>
</g>
<g id="glyph-0-10">
<path d="M 0.71875 -5.890625 L 1.5 -5.890625 L 1.5 -4.59375 L 2.234375 -4.59375 L 2.234375 -3.96875 L 1.5 -3.96875 L 1.5 -0.96875 C 1.5 -0.800781 1.554688 -0.691406 1.671875 -0.640625 C 1.722656 -0.609375 1.820312 -0.59375 1.96875 -0.59375 C 2 -0.59375 2.035156 -0.59375 2.078125 -0.59375 C 2.128906 -0.59375 2.179688 -0.597656 2.234375 -0.609375 L 2.234375 0 C 2.148438 0.0195312 2.054688 0.0351562 1.953125 0.046875 C 1.859375 0.0664062 1.757812 0.078125 1.65625 0.078125 C 1.289062 0.078125 1.039062 -0.015625 0.90625 -0.203125 C 0.78125 -0.390625 0.71875 -0.628906 0.71875 -0.921875 L 0.71875 -3.96875 L 0.09375 -3.96875 L 0.09375 -4.59375 L 0.71875 -4.59375 Z M 0.71875 -5.890625 "/>
</g>
<g id="glyph-0-11">
<path d="M 3.09375 -0.734375 C 3.382812 -0.734375 3.625 -0.765625 3.8125 -0.828125 C 4.132812 -0.929688 4.40625 -1.144531 4.625 -1.46875 C 4.789062 -1.71875 4.910156 -2.039062 4.984375 -2.4375 C 5.023438 -2.675781 5.046875 -2.898438 5.046875 -3.109375 C 5.046875 -3.890625 4.890625 -4.492188 4.578125 -4.921875 C 4.273438 -5.359375 3.773438 -5.578125 3.078125 -5.578125 L 1.5625 -5.578125 L 1.5625 -0.734375 Z M 0.703125 -6.3125 L 3.265625 -6.3125 C 4.128906 -6.3125 4.800781 -6.003906 5.28125 -5.390625 C 5.707031 -4.828125 5.921875 -4.113281 5.921875 -3.25 C 5.921875 -2.582031 5.796875 -1.976562 5.546875 -1.4375 C 5.097656 -0.476562 4.332031 0 3.25 0 L 0.703125 0 Z M 0.703125 -6.3125 "/>
</g>
<g id="glyph-0-12">
<path d="M 2.390625 -0.5 C 2.898438 -0.5 3.25 -0.691406 3.4375 -1.078125 C 3.632812 -1.460938 3.734375 -1.894531 3.734375 -2.375 C 3.734375 -2.800781 3.664062 -3.148438 3.53125 -3.421875 C 3.3125 -3.847656 2.9375 -4.0625 2.40625 -4.0625 C 1.925781 -4.0625 1.578125 -3.878906 1.359375 -3.515625 C 1.148438 -3.160156 1.046875 -2.726562 1.046875 -2.21875 C 1.046875 -1.726562 1.148438 -1.316406 1.359375 -0.984375 C 1.578125 -0.660156 1.921875 -0.5 2.390625 -0.5 Z M 2.421875 -4.734375 C 3.015625 -4.734375 3.515625 -4.535156 3.921875 -4.140625 C 4.335938 -3.742188 4.546875 -3.160156 4.546875 -2.390625 C 4.546875 -1.648438 4.363281 -1.035156 4 -0.546875 C 3.632812 -0.0664062 3.070312 0.171875 2.3125 0.171875 C 1.6875 0.171875 1.1875 -0.0390625 0.8125 -0.46875 C 0.4375 -0.894531 0.25 -1.472656 0.25 -2.203125 C 0.25 -2.972656 0.445312 -3.585938 0.84375 -4.046875 C 1.238281 -4.503906 1.765625 -4.734375 2.421875 -4.734375 Z M 2.390625 -4.71875 Z M 2.390625 -4.71875 "/>
</g>
<g id="glyph-0-13">
<path d="M 2.1875 -4.6875 C 2.550781 -4.6875 2.867188 -4.597656 3.140625 -4.421875 C 3.285156 -4.316406 3.429688 -4.171875 3.578125 -3.984375 L 3.578125 -4.5625 L 4.296875 -4.5625 L 4.296875 -0.375 C 4.296875 0.207031 4.207031 0.671875 4.03125 1.015625 C 3.71875 1.640625 3.113281 1.953125 2.21875 1.953125 C 1.726562 1.953125 1.3125 1.835938 0.96875 1.609375 C 0.632812 1.390625 0.445312 1.046875 0.40625 0.578125 L 1.1875 0.578125 C 1.226562 0.773438 1.300781 0.929688 1.40625 1.046875 C 1.582031 1.222656 1.859375 1.3125 2.234375 1.3125 C 2.828125 1.3125 3.21875 1.097656 3.40625 0.671875 C 3.507812 0.429688 3.554688 -0.00390625 3.546875 -0.640625 C 3.390625 -0.398438 3.203125 -0.222656 2.984375 -0.109375 C 2.773438 0.00390625 2.488281 0.0625 2.125 0.0625 C 1.632812 0.0625 1.203125 -0.113281 0.828125 -0.46875 C 0.453125 -0.820312 0.265625 -1.410156 0.265625 -2.234375 C 0.265625 -3.003906 0.453125 -3.601562 0.828125 -4.03125 C 1.203125 -4.46875 1.65625 -4.6875 2.1875 -4.6875 Z M 3.578125 -2.3125 C 3.578125 -2.882812 3.457031 -3.304688 3.21875 -3.578125 C 2.988281 -3.859375 2.691406 -4 2.328125 -4 C 1.785156 -4 1.414062 -3.742188 1.21875 -3.234375 C 1.113281 -2.960938 1.0625 -2.609375 1.0625 -2.171875 C 1.0625 -1.648438 1.164062 -1.253906 1.375 -0.984375 C 1.582031 -0.710938 1.863281 -0.578125 2.21875 -0.578125 C 2.769531 -0.578125 3.160156 -0.828125 3.390625 -1.328125 C 3.515625 -1.609375 3.578125 -1.9375 3.578125 -2.3125 Z M 2.28125 -4.71875 Z M 2.28125 -4.71875 "/>
</g>
<g id="glyph-0-14">
<path d="M 3.390625 -6.484375 C 4.503906 -6.484375 5.332031 -6.125 5.875 -5.40625 C 6.289062 -4.84375 6.5 -4.128906 6.5 -3.265625 C 6.5 -2.316406 6.257812 -1.535156 5.78125 -0.921875 C 5.21875 -0.179688 4.414062 0.1875 3.375 0.1875 C 2.40625 0.1875 1.644531 -0.132812 1.09375 -0.78125 C 0.59375 -1.394531 0.34375 -2.175781 0.34375 -3.125 C 0.34375 -3.976562 0.554688 -4.707031 0.984375 -5.3125 C 1.523438 -6.09375 2.328125 -6.484375 3.390625 -6.484375 Z M 3.484375 -0.578125 C 4.234375 -0.578125 4.773438 -0.847656 5.109375 -1.390625 C 5.453125 -1.929688 5.625 -2.550781 5.625 -3.25 C 5.625 -3.988281 5.425781 -4.582031 5.03125 -5.03125 C 4.644531 -5.488281 4.113281 -5.71875 3.4375 -5.71875 C 2.789062 -5.71875 2.257812 -5.492188 1.84375 -5.046875 C 1.4375 -4.597656 1.234375 -3.9375 1.234375 -3.0625 C 1.234375 -2.363281 1.410156 -1.773438 1.765625 -1.296875 C 2.117188 -0.816406 2.691406 -0.578125 3.484375 -0.578125 Z M 3.421875 -6.484375 Z M 3.421875 -6.484375 "/>
</g>
<g id="glyph-0-15">
<path d="M 0.5625 -6.328125 L 1.34375 -6.328125 L 1.34375 -3.984375 C 1.519531 -4.210938 1.679688 -4.375 1.828125 -4.46875 C 2.078125 -4.632812 2.390625 -4.71875 2.765625 -4.71875 C 3.429688 -4.71875 3.882812 -4.484375 4.125 -4.015625 C 4.25 -3.753906 4.3125 -3.398438 4.3125 -2.953125 L 4.3125 0 L 3.515625 0 L 3.515625 -2.90625 C 3.515625 -3.238281 3.472656 -3.484375 3.390625 -3.640625 C 3.253906 -3.890625 2.992188 -4.015625 2.609375 -4.015625 C 2.285156 -4.015625 1.992188 -3.90625 1.734375 -3.6875 C 1.472656 -3.46875 1.34375 -3.050781 1.34375 -2.4375 L 1.34375 0 L 0.5625 0 Z M 0.5625 -6.328125 "/>
</g>
<g id="glyph-0-16">
<path d="M 2.484375 -4.703125 C 2.804688 -4.703125 3.117188 -4.625 3.421875 -4.46875 C 3.734375 -4.320312 3.96875 -4.125 4.125 -3.875 C 4.28125 -3.644531 4.382812 -3.375 4.4375 -3.0625 C 4.488281 -2.851562 4.515625 -2.515625 4.515625 -2.046875 L 1.140625 -2.046875 C 1.148438 -1.585938 1.257812 -1.210938 1.46875 -0.921875 C 1.675781 -0.640625 1.992188 -0.5 2.421875 -0.5 C 2.828125 -0.5 3.148438 -0.632812 3.390625 -0.90625 C 3.523438 -1.0625 3.625 -1.238281 3.6875 -1.4375 L 4.453125 -1.4375 C 4.429688 -1.269531 4.363281 -1.082031 4.25 -0.875 C 4.132812 -0.664062 4.003906 -0.5 3.859375 -0.375 C 3.628906 -0.144531 3.34375 0.0078125 3 0.09375 C 2.8125 0.132812 2.597656 0.15625 2.359375 0.15625 C 1.785156 0.15625 1.300781 -0.0507812 0.90625 -0.46875 C 0.507812 -0.882812 0.3125 -1.46875 0.3125 -2.21875 C 0.3125 -2.945312 0.507812 -3.539062 0.90625 -4 C 1.3125 -4.46875 1.835938 -4.703125 2.484375 -4.703125 Z M 3.71875 -2.671875 C 3.6875 -3.003906 3.613281 -3.269531 3.5 -3.46875 C 3.28125 -3.84375 2.925781 -4.03125 2.4375 -4.03125 C 2.082031 -4.03125 1.785156 -3.898438 1.546875 -3.640625 C 1.304688 -3.390625 1.175781 -3.066406 1.15625 -2.671875 Z M 2.40625 -4.71875 Z M 2.40625 -4.71875 "/>
</g>
<g id="glyph-0-17">
<path d="M 1.09375 -6.3125 L 2.28125 -1.171875 L 3.703125 -6.3125 L 4.625 -6.3125 L 6.0625 -1.171875 L 7.25 -6.3125 L 8.1875 -6.3125 L 6.53125 0 L 5.625 0 L 4.171875 -5.234375 L 2.703125 0 L 1.8125 0 L 0.15625 -6.3125 Z M 1.09375 -6.3125 "/>
</g>
<g id="glyph-0-18">
<path d="M 0.59375 -6.3125 L 1.359375 -6.3125 L 1.359375 0 L 0.59375 0 Z M 0.59375 -6.3125 "/>
</g>
<g id="glyph-1-0">
<path d="M 0.359375 0 L 0.359375 -7.890625 L 6.625 -7.890625 L 6.625 0 Z M 5.625 -0.984375 L 5.625 -6.90625 L 1.34375 -6.90625 L 1.34375 -0.984375 Z M 5.625 -0.984375 "/>
</g>
<g id="glyph-1-1">
<path d="M 1.453125 -1.53125 C 1.453125 -1.25 1.550781 -1.023438 1.75 -0.859375 C 1.957031 -0.703125 2.203125 -0.625 2.484375 -0.625 C 2.816406 -0.625 3.144531 -0.703125 3.46875 -0.859375 C 4.007812 -1.117188 4.28125 -1.550781 4.28125 -2.15625 L 4.28125 -2.921875 C 4.15625 -2.847656 4 -2.785156 3.8125 -2.734375 C 3.632812 -2.691406 3.453125 -2.65625 3.265625 -2.625 L 2.6875 -2.5625 C 2.332031 -2.507812 2.066406 -2.4375 1.890625 -2.34375 C 1.597656 -2.164062 1.453125 -1.894531 1.453125 -1.53125 Z M 3.796875 -3.484375 C 4.015625 -3.515625 4.160156 -3.609375 4.234375 -3.765625 C 4.273438 -3.847656 4.296875 -3.972656 4.296875 -4.140625 C 4.296875 -4.460938 4.175781 -4.695312 3.9375 -4.84375 C 3.707031 -5 3.375 -5.078125 2.9375 -5.078125 C 2.4375 -5.078125 2.082031 -4.941406 1.875 -4.671875 C 1.75 -4.515625 1.671875 -4.289062 1.640625 -4 L 0.734375 -4 C 0.753906 -4.707031 0.984375 -5.195312 1.421875 -5.46875 C 1.867188 -5.75 2.382812 -5.890625 2.96875 -5.890625 C 3.644531 -5.890625 4.191406 -5.757812 4.609375 -5.5 C 5.035156 -5.25 5.25 -4.847656 5.25 -4.296875 L 5.25 -0.984375 C 5.25 -0.890625 5.265625 -0.8125 5.296875 -0.75 C 5.335938 -0.6875 5.425781 -0.65625 5.5625 -0.65625 C 5.601562 -0.65625 5.648438 -0.65625 5.703125 -0.65625 C 5.765625 -0.664062 5.820312 -0.675781 5.875 -0.6875 L 5.875 0.03125 C 5.726562 0.0703125 5.613281 0.0976562 5.53125 0.109375 C 5.457031 0.117188 5.351562 0.125 5.21875 0.125 C 4.882812 0.125 4.640625 0.00390625 4.484375 -0.234375 C 4.410156 -0.359375 4.359375 -0.535156 4.328125 -0.765625 C 4.128906 -0.503906 3.84375 -0.28125 3.46875 -0.09375 C 3.101562 0.0898438 2.695312 0.1875 2.25 0.1875 C 1.71875 0.1875 1.28125 0.0234375 0.9375 -0.296875 C 0.601562 -0.617188 0.4375 -1.023438 0.4375 -1.515625 C 0.4375 -2.046875 0.601562 -2.457031 0.9375 -2.75 C 1.269531 -3.039062 1.707031 -3.222656 2.25 -3.296875 Z M 2.984375 -5.890625 Z M 2.984375 -5.890625 "/>
</g>
<g id="glyph-1-2">
<path d="M 0.703125 -5.75 L 1.625 -5.75 L 1.625 -4.9375 C 1.894531 -5.269531 2.179688 -5.507812 2.484375 -5.65625 C 2.796875 -5.800781 3.132812 -5.875 3.5 -5.875 C 4.320312 -5.875 4.875 -5.59375 5.15625 -5.03125 C 5.3125 -4.71875 5.390625 -4.269531 5.390625 -3.6875 L 5.390625 0 L 4.421875 0 L 4.421875 -3.625 C 4.421875 -3.976562 4.367188 -4.257812 4.265625 -4.46875 C 4.085938 -4.832031 3.773438 -5.015625 3.328125 -5.015625 C 3.097656 -5.015625 2.910156 -4.988281 2.765625 -4.9375 C 2.492188 -4.863281 2.257812 -4.707031 2.0625 -4.46875 C 1.90625 -4.28125 1.800781 -4.082031 1.75 -3.875 C 1.695312 -3.675781 1.671875 -3.390625 1.671875 -3.015625 L 1.671875 0 L 0.703125 0 Z M 2.984375 -5.890625 Z M 2.984375 -5.890625 "/>
</g>
<g id="glyph-1-3">
<path d="M 0.703125 -5.71875 L 1.6875 -5.71875 L 1.6875 0 L 0.703125 0 Z M 0.703125 -7.890625 L 1.6875 -7.890625 L 1.6875 -6.796875 L 0.703125 -6.796875 Z M 0.703125 -7.890625 "/>
</g>
<g id="glyph-1-4">
<path d="M 0.703125 -5.75 L 1.671875 -5.75 L 1.671875 -4.9375 C 1.898438 -5.21875 2.101562 -5.421875 2.28125 -5.546875 C 2.601562 -5.765625 2.96875 -5.875 3.375 -5.875 C 3.832031 -5.875 4.203125 -5.765625 4.484375 -5.546875 C 4.640625 -5.410156 4.78125 -5.21875 4.90625 -4.96875 C 5.125 -5.28125 5.378906 -5.507812 5.671875 -5.65625 C 5.960938 -5.800781 6.285156 -5.875 6.640625 -5.875 C 7.410156 -5.875 7.9375 -5.597656 8.21875 -5.046875 C 8.375 -4.742188 8.453125 -4.335938 8.453125 -3.828125 L 8.453125 0 L 7.4375 0 L 7.4375 -4 C 7.4375 -4.382812 7.34375 -4.644531 7.15625 -4.78125 C 6.96875 -4.925781 6.734375 -5 6.453125 -5 C 6.078125 -5 5.75 -4.867188 5.46875 -4.609375 C 5.195312 -4.359375 5.0625 -3.9375 5.0625 -3.34375 L 5.0625 0 L 4.078125 0 L 4.078125 -3.75 C 4.078125 -4.144531 4.03125 -4.429688 3.9375 -4.609375 C 3.789062 -4.878906 3.519531 -5.015625 3.125 -5.015625 C 2.757812 -5.015625 2.425781 -4.867188 2.125 -4.578125 C 1.820312 -4.296875 1.671875 -3.785156 1.671875 -3.046875 L 1.671875 0 L 0.703125 0 Z M 0.703125 -5.75 "/>
</g>
<g id="glyph-1-5">
<path d="M 0.734375 -7.890625 L 1.703125 -7.890625 L 1.703125 0 L 0.734375 0 Z M 0.734375 -7.890625 "/>
</g>
<g id="glyph-1-6">
<path d="M 0 1.375 L 0 0.828125 L 6.125 0.828125 L 6.125 1.375 Z M 0 1.375 "/>
</g>
<g id="glyph-1-7">
<path d="M 0.90625 -7.359375 L 1.875 -7.359375 L 1.875 -5.75 L 2.796875 -5.75 L 2.796875 -4.96875 L 1.875 -4.96875 L 1.875 -1.203125 C 1.875 -1.003906 1.941406 -0.875 2.078125 -0.8125 C 2.160156 -0.769531 2.285156 -0.75 2.453125 -0.75 C 2.503906 -0.75 2.554688 -0.75 2.609375 -0.75 C 2.660156 -0.75 2.722656 -0.753906 2.796875 -0.765625 L 2.796875 0 C 2.679688 0.03125 2.5625 0.0507812 2.4375 0.0625 C 2.320312 0.0820312 2.195312 0.09375 2.0625 0.09375 C 1.613281 0.09375 1.304688 -0.0195312 1.140625 -0.25 C 0.984375 -0.488281 0.90625 -0.789062 0.90625 -1.15625 L 0.90625 -4.96875 L 0.125 -4.96875 L 0.125 -5.75 L 0.90625 -5.75 Z M 0.90625 -7.359375 "/>
</g>
<g id="glyph-1-8">
<path d="M 4.296875 -5.75 L 5.375 -5.75 C 5.238281 -5.382812 4.9375 -4.546875 4.46875 -3.234375 C 4.113281 -2.242188 3.816406 -1.4375 3.578125 -0.8125 C 3.023438 0.652344 2.632812 1.550781 2.40625 1.875 C 2.175781 2.195312 1.78125 2.359375 1.21875 2.359375 C 1.082031 2.359375 0.976562 2.351562 0.90625 2.34375 C 0.832031 2.332031 0.742188 2.3125 0.640625 2.28125 L 0.640625 1.40625 C 0.804688 1.445312 0.925781 1.472656 1 1.484375 C 1.070312 1.492188 1.140625 1.5 1.203125 1.5 C 1.378906 1.5 1.507812 1.46875 1.59375 1.40625 C 1.675781 1.351562 1.75 1.285156 1.8125 1.203125 C 1.820312 1.171875 1.882812 1.019531 2 0.75 C 2.113281 0.488281 2.191406 0.296875 2.234375 0.171875 L 0.109375 -5.75 L 1.203125 -5.75 L 2.75 -1.0625 Z M 2.75 -5.890625 Z M 2.75 -5.890625 "/>
</g>
<g id="glyph-1-9">
<path d="M 3.140625 -0.65625 C 3.585938 -0.65625 3.957031 -0.84375 4.25 -1.21875 C 4.550781 -1.59375 4.703125 -2.15625 4.703125 -2.90625 C 4.703125 -3.363281 4.640625 -3.757812 4.515625 -4.09375 C 4.265625 -4.726562 3.804688 -5.046875 3.140625 -5.046875 C 2.460938 -5.046875 2.003906 -4.710938 1.765625 -4.046875 C 1.628906 -3.679688 1.5625 -3.222656 1.5625 -2.671875 C 1.5625 -2.234375 1.628906 -1.859375 1.765625 -1.546875 C 2.015625 -0.953125 2.472656 -0.65625 3.140625 -0.65625 Z M 0.640625 -5.71875 L 1.578125 -5.71875 L 1.578125 -4.96875 C 1.765625 -5.226562 1.972656 -5.425781 2.203125 -5.5625 C 2.535156 -5.78125 2.921875 -5.890625 3.359375 -5.890625 C 4.003906 -5.890625 4.554688 -5.640625 5.015625 -5.140625 C 5.472656 -4.640625 5.703125 -3.925781 5.703125 -3 C 5.703125 -1.75 5.375 -0.851562 4.71875 -0.3125 C 4.300781 0.0195312 3.816406 0.1875 3.265625 0.1875 C 2.828125 0.1875 2.460938 0.0898438 2.171875 -0.09375 C 2.003906 -0.195312 1.8125 -0.378906 1.59375 -0.640625 L 1.59375 2.296875 L 0.640625 2.296875 Z M 0.640625 -5.71875 "/>
</g>
<g id="glyph-1-10">
<path d="M 3.109375 -5.875 C 3.515625 -5.875 3.90625 -5.78125 4.28125 -5.59375 C 4.664062 -5.40625 4.960938 -5.15625 5.171875 -4.84375 C 5.359375 -4.5625 5.484375 -4.222656 5.546875 -3.828125 C 5.609375 -3.566406 5.640625 -3.144531 5.640625 -2.5625 L 1.421875 -2.5625 C 1.441406 -1.976562 1.578125 -1.507812 1.828125 -1.15625 C 2.085938 -0.8125 2.488281 -0.640625 3.03125 -0.640625 C 3.539062 -0.640625 3.945312 -0.804688 4.25 -1.140625 C 4.414062 -1.328125 4.535156 -1.550781 4.609375 -1.8125 L 5.5625 -1.8125 C 5.53125 -1.59375 5.441406 -1.351562 5.296875 -1.09375 C 5.160156 -0.832031 5.003906 -0.625 4.828125 -0.46875 C 4.535156 -0.175781 4.175781 0.0195312 3.75 0.125 C 3.507812 0.175781 3.242188 0.203125 2.953125 0.203125 C 2.234375 0.203125 1.625 -0.0546875 1.125 -0.578125 C 0.632812 -1.097656 0.390625 -1.828125 0.390625 -2.765625 C 0.390625 -3.691406 0.640625 -4.441406 1.140625 -5.015625 C 1.640625 -5.585938 2.296875 -5.875 3.109375 -5.875 Z M 4.640625 -3.328125 C 4.609375 -3.753906 4.519531 -4.09375 4.375 -4.34375 C 4.101562 -4.800781 3.660156 -5.03125 3.046875 -5.03125 C 2.597656 -5.03125 2.222656 -4.867188 1.921875 -4.546875 C 1.628906 -4.234375 1.472656 -3.828125 1.453125 -3.328125 Z M 3.015625 -5.890625 Z M 3.015625 -5.890625 "/>
</g>
<g id="glyph-2-0">
<path d="M 0 -0.359375 L -7.890625 -0.359375 L -7.890625 -6.625 L 0 -6.625 Z M -0.984375 -5.625 L -6.90625 -5.625 L -6.90625 -1.34375 L -0.984375 -1.34375 Z M -0.984375 -5.625 "/>
</g>
<g id="glyph-2-1">
<path d="M -7.359375 -0.90625 L -7.359375 -1.875 L -5.75 -1.875 L -5.75 -2.796875 L -4.96875 -2.796875 L -4.96875 -1.875 L -1.203125 -1.875 C -1.003906 -1.875 -0.875 -1.941406 -0.8125 -2.078125 C -0.769531 -2.160156 -0.75 -2.285156 -0.75 -2.453125 C -0.75 -2.503906 -0.75 -2.554688 -0.75 -2.609375 C -0.75 -2.660156 -0.753906 -2.722656 -0.765625 -2.796875 L 0 -2.796875 C 0.03125 -2.679688 0.0507812 -2.5625 0.0625 -2.4375 C 0.0820312 -2.320312 0.09375 -2.195312 0.09375 -2.0625 C 0.09375 -1.613281 -0.0195312 -1.304688 -0.25 -1.140625 C -0.488281 -0.984375 -0.789062 -0.90625 -1.15625 -0.90625 L -4.96875 -0.90625 L -4.96875 -0.125 L -5.75 -0.125 L -5.75 -0.90625 Z M -7.359375 -0.90625 "/>
</g>
<g id="glyph-2-2">
<path d="M -0.625 -2.984375 C -0.625 -3.628906 -0.863281 -4.070312 -1.34375 -4.3125 C -1.832031 -4.550781 -2.375 -4.671875 -2.96875 -4.671875 C -3.507812 -4.671875 -3.945312 -4.582031 -4.28125 -4.40625 C -4.8125 -4.132812 -5.078125 -3.664062 -5.078125 -3 C -5.078125 -2.40625 -4.847656 -1.972656 -4.390625 -1.703125 C -3.941406 -1.441406 -3.398438 -1.3125 -2.765625 -1.3125 C -2.148438 -1.3125 -1.640625 -1.441406 -1.234375 -1.703125 C -0.828125 -1.972656 -0.625 -2.398438 -0.625 -2.984375 Z M -5.921875 -3.03125 C -5.921875 -3.769531 -5.671875 -4.394531 -5.171875 -4.90625 C -4.679688 -5.414062 -3.957031 -5.671875 -3 -5.671875 C -2.070312 -5.671875 -1.304688 -5.445312 -0.703125 -5 C -0.0976562 -4.550781 0.203125 -3.851562 0.203125 -2.90625 C 0.203125 -2.113281 -0.0625 -1.484375 -0.59375 -1.015625 C -1.125 -0.546875 -1.84375 -0.3125 -2.75 -0.3125 C -3.71875 -0.3125 -4.488281 -0.554688 -5.0625 -1.046875 C -5.632812 -1.535156 -5.921875 -2.195312 -5.921875 -3.03125 Z M -5.890625 -3 Z M -5.890625 -3 "/>
</g>
<g id="glyph-2-3">
<path d="M -1.53125 -1.453125 C -1.25 -1.453125 -1.023438 -1.550781 -0.859375 -1.75 C -0.703125 -1.957031 -0.625 -2.203125 -0.625 -2.484375 C -0.625 -2.816406 -0.703125 -3.144531 -0.859375 -3.46875 C -1.117188 -4.007812 -1.550781 -4.28125 -2.15625 -4.28125 L -2.921875 -4.28125 C -2.847656 -4.15625 -2.785156 -4 -2.734375 -3.8125 C -2.691406 -3.632812 -2.65625 -3.453125 -2.625 -3.265625 L -2.5625 -2.6875 C -2.507812 -2.332031 -2.4375 -2.066406 -2.34375 -1.890625 C -2.164062 -1.597656 -1.894531 -1.453125 -1.53125 -1.453125 Z M -3.484375 -3.796875 C -3.515625 -4.015625 -3.609375 -4.160156 -3.765625 -4.234375 C -3.847656 -4.273438 -3.972656 -4.296875 -4.140625 -4.296875 C -4.460938 -4.296875 -4.695312 -4.175781 -4.84375 -3.9375 C -5 -3.707031 -5.078125 -3.375 -5.078125 -2.9375 C -5.078125 -2.4375 -4.941406 -2.082031 -4.671875 -1.875 C -4.515625 -1.75 -4.289062 -1.671875 -4 -1.640625 L -4 -0.734375 C -4.707031 -0.753906 -5.195312 -0.984375 -5.46875 -1.421875 C -5.75 -1.867188 -5.890625 -2.382812 -5.890625 -2.96875 C -5.890625 -3.644531 -5.757812 -4.191406 -5.5 -4.609375 C -5.25 -5.035156 -4.847656 -5.25 -4.296875 -5.25 L -0.984375 -5.25 C -0.890625 -5.25 -0.8125 -5.265625 -0.75 -5.296875 C -0.6875 -5.335938 -0.65625 -5.425781 -0.65625 -5.5625 C -0.65625 -5.601562 -0.65625 -5.648438 -0.65625 -5.703125 C -0.664062 -5.765625 -0.675781 -5.820312 -0.6875 -5.875 L 0.03125 -5.875 C 0.0703125 -5.726562 0.0976562 -5.613281 0.109375 -5.53125 C 0.117188 -5.457031 0.125 -5.351562 0.125 -5.21875 C 0.125 -4.882812 0.00390625 -4.640625 -0.234375 -4.484375 C -0.359375 -4.410156 -0.535156 -4.359375 -0.765625 -4.328125 C -0.503906 -4.128906 -0.28125 -3.84375 -0.09375 -3.46875 C 0.0898438 -3.101562 0.1875 -2.695312 0.1875 -2.25 C 0.1875 -1.71875 0.0234375 -1.28125 -0.296875 -0.9375 C -0.617188 -0.601562 -1.023438 -0.4375 -1.515625 -0.4375 C -2.046875 -0.4375 -2.457031 -0.601562 -2.75 -0.9375 C -3.039062 -1.269531 -3.222656 -1.707031 -3.296875 -2.25 Z M -5.890625 -2.984375 Z M -5.890625 -2.984375 "/>
</g>
<g id="glyph-2-4">
<path d="M -7.890625 -0.734375 L -7.890625 -1.703125 L 0 -1.703125 L 0 -0.734375 Z M -7.890625 -0.734375 "/>
</g>
</g>
<clipPath id="clip-0">
<path clip-rule="nonzero" d="M 49.152344 5.480469 L 390.523438 5.480469 L 390.523438 218.851562 L 49.152344 218.851562 Z M 49.152344 5.480469 "/>
</clipPath>
<clipPath id="clip-1">
<path clip-rule="nonzero" d="M 49.152344 172 L 390.523438 172 L 390.523438 174 L 49.152344 174 Z M 49.152344 172 "/>
</clipPath>
<clipPath id="clip-2">
<path clip-rule="nonzero" d="M 49.152344 100 L 390.523438 100 L 390.523438 101 L 49.152344 101 Z M 49.152344 100 "/>
</clipPath>
<clipPath id="clip-3">
<path clip-rule="nonzero" d="M 49.152344 27 L 390.523438 27 L 390.523438 29 L 49.152344 29 Z M 49.152344 27 "/>
</clipPath>
<clipPath id="clip-4">
<path clip-rule="nonzero" d="M 49.152344 208 L 390.523438 208 L 390.523438 210 L 49.152344 210 Z M 49.152344 208 "/>
</clipPath>
<clipPath id="clip-5">
<path clip-rule="nonzero" d="M 49.152344 136 L 390.523438 136 L 390.523438 138 L 49.152344 138 Z M 49.152344 136 "/>
</clipPath>
<clipPath id="clip-6">
<path clip-rule="nonzero" d="M 49.152344 63 L 390.523438 63 L 390.523438 65 L 49.152344 65 Z M 49.152344 63 "/>
</clipPath>
<clipPath id="clip-7">
<path clip-rule="nonzero" d="M 88 5.480469 L 90 5.480469 L 90 218.851562 L 88 218.851562 Z M 88 5.480469 "/>
</clipPath>
<clipPath id="clip-8">
<path clip-rule="nonzero" d="M 153 5.480469 L 155 5.480469 L 155 218.851562 L 153 218.851562 Z M 153 5.480469 "/>
</clipPath>
<clipPath id="clip-9">
<path clip-rule="nonzero" d="M 219 5.480469 L 221 5.480469 L 221 218.851562 L 219 218.851562 Z M 219 5.480469 "/>
</clipPath>
<clipPath id="clip-10">
<path clip-rule="nonzero" d="M 284 5.480469 L 287 5.480469 L 287 218.851562 L 284 218.851562 Z M 284 5.480469 "/>
</clipPath>
<clipPath id="clip-11">
<path clip-rule="nonzero" d="M 350 5.480469 L 352 5.480469 L 352 218.851562 L 350 218.851562 Z M 350 5.480469 "/>
</clipPath>
</defs>
<rect x="-39.6" y="-25.2" width="475.2" height="302.4" fill="rgb(100%, 100%, 100%)" fill-opacity="1"/>
<rect x="-39.6" y="-25.2" width="475.2" height="302.4" fill="rgb(100%, 100%, 100%)" fill-opacity="1"/>
<path fill="none" stroke-width="1.066978" stroke-linecap="round" stroke-linejoin="round" stroke="rgb(100%, 100%, 100%)" stroke-opacity="1" stroke-miterlimit="10" d="M 0 252 L 396 252 L 396 0 L 0 0 Z M 0 252 "/>
<g clip-path="url(#clip-0)">
<path fill-rule="nonzero" fill="rgb(92.156863%, 92.156863%, 92.156863%)" fill-opacity="1" d="M 49.152344 218.847656 L 390.523438 218.847656 L 390.523438 5.476562 L 49.152344 5.476562 Z M 49.152344 218.847656 "/>
</g>
<g clip-path="url(#clip-1)">
<path fill="none" stroke-width="0.533489" stroke-linecap="butt" stroke-linejoin="round" stroke="rgb(100%, 100%, 100%)" stroke-opacity="1" stroke-miterlimit="10" d="M 49.152344 172.871094 L 390.519531 172.871094 "/>
</g>
<g clip-path="url(#clip-2)">
<path fill="none" stroke-width="0.533489" stroke-linecap="butt" stroke-linejoin="round" stroke="rgb(100%, 100%, 100%)" stroke-opacity="1" stroke-miterlimit="10" d="M 49.152344 100.316406 L 390.519531 100.316406 "/>
</g>
<g clip-path="url(#clip-3)">
<path fill="none" stroke-width="0.533489" stroke-linecap="butt" stroke-linejoin="round" stroke="rgb(100%, 100%, 100%)" stroke-opacity="1" stroke-miterlimit="10" d="M 49.152344 27.757812 L 390.519531 27.757812 "/>
</g>
<g clip-path="url(#clip-4)">
<path fill="none" stroke-width="1.066978" stroke-linecap="butt" stroke-linejoin="round" stroke="rgb(100%, 100%, 100%)" stroke-opacity="1" stroke-miterlimit="10" d="M 49.152344 209.152344 L 390.519531 209.152344 "/>
</g>
<g clip-path="url(#clip-5)">
<path fill="none" stroke-width="1.066978" stroke-linecap="butt" stroke-linejoin="round" stroke="rgb(100%, 100%, 100%)" stroke-opacity="1" stroke-miterlimit="10" d="M 49.152344 136.59375 L 390.519531 136.59375 "/>
</g>
<g clip-path="url(#clip-6)">
<path fill="none" stroke-width="1.066978" stroke-linecap="butt" stroke-linejoin="round" stroke="rgb(100%, 100%, 100%)" stroke-opacity="1" stroke-miterlimit="10" d="M 49.152344 64.039062 L 390.519531 64.039062 "/>
</g>
<g clip-path="url(#clip-7)">
<path fill="none" stroke-width="1.066978" stroke-linecap="butt" stroke-linejoin="round" stroke="rgb(100%, 100%, 100%)" stroke-opacity="1" stroke-miterlimit="10" d="M 88.539062 218.847656 L 88.539062 5.480469 "/>
</g>
<g clip-path="url(#clip-8)">
<path fill="none" stroke-width="1.066978" stroke-linecap="butt" stroke-linejoin="round" stroke="rgb(100%, 100%, 100%)" stroke-opacity="1" stroke-miterlimit="10" d="M 154.1875 218.847656 L 154.1875 5.480469 "/>
</g>
<g clip-path="url(#clip-9)">
<path fill="none" stroke-width="1.066978" stroke-linecap="butt" stroke-linejoin="round" stroke="rgb(100%, 100%, 100%)" stroke-opacity="1" stroke-miterlimit="10" d="M 219.835938 218.847656 L 219.835938 5.480469 "/>
</g>
<g clip-path="url(#clip-10)">
<path fill="none" stroke-width="1.066978" stroke-linecap="butt" stroke-linejoin="round" stroke="rgb(100%, 100%, 100%)" stroke-opacity="1" stroke-miterlimit="10" d="M 285.484375 218.847656 L 285.484375 5.480469 "/>
</g>
<g clip-path="url(#clip-11)">
<path fill="none" stroke-width="1.066978" stroke-linecap="butt" stroke-linejoin="round" stroke="rgb(100%, 100%, 100%)" stroke-opacity="1" stroke-miterlimit="10" d="M 351.132812 218.847656 L 351.132812 5.480469 "/>
</g>
<path fill-rule="nonzero" fill="rgb(97.254902%, 46.27451%, 42.745098%)" fill-opacity="1" d="M 58.996094 209.152344 L 118.078125 209.152344 L 118.078125 180.828125 L 58.996094 180.828125 Z M 58.996094 209.152344 "/>
<path fill-rule="nonzero" fill="rgb(63.921569%, 64.705882%, 0%)" fill-opacity="1" d="M 124.644531 209.152344 L 183.726562 209.152344 L 183.726562 15.179688 L 124.644531 15.179688 Z M 124.644531 209.152344 "/>
<path fill-rule="nonzero" fill="rgb(0%, 74.901961%, 49.019608%)" fill-opacity="1" d="M 190.292969 209.152344 L 249.375 209.152344 L 249.375 86.5625 L 190.292969 86.5625 Z M 190.292969 209.152344 "/>
<path fill-rule="nonzero" fill="rgb(0%, 69.019608%, 96.470588%)" fill-opacity="1" d="M 255.941406 209.152344 L 315.023438 209.152344 L 315.023438 190.578125 L 255.941406 190.578125 Z M 255.941406 209.152344 "/>
<path fill-rule="nonzero" fill="rgb(90.588235%, 41.960784%, 95.294118%)" fill-opacity="1" d="M 321.589844 209.152344 L 380.671875 209.152344 L 380.671875 189.328125 L 321.589844 189.328125 Z M 321.589844 209.152344 "/>
<g fill="rgb(30.196078%, 30.196078%, 30.196078%)" fill-opacity="1">
<use xlink:href="#glyph-0-1" x="39.21875" y="212.428711"/>
</g>
<g fill="rgb(30.196078%, 30.196078%, 30.196078%)" fill-opacity="1">
<use xlink:href="#glyph-0-2" x="24.21875" y="139.870117"/>
<use xlink:href="#glyph-0-1" x="29.21875" y="139.870117"/>
<use xlink:href="#glyph-0-1" x="34.21875" y="139.870117"/>
<use xlink:href="#glyph-0-1" x="39.21875" y="139.870117"/>
</g>
<g fill="rgb(30.196078%, 30.196078%, 30.196078%)" fill-opacity="1">
<use xlink:href="#glyph-0-3" x="19.21875" y="67.31543"/>
<use xlink:href="#glyph-0-1" x="24.21875" y="67.31543"/>
<use xlink:href="#glyph-0-1" x="29.21875" y="67.31543"/>
<use xlink:href="#glyph-0-1" x="34.21875" y="67.31543"/>
<use xlink:href="#glyph-0-1" x="39.21875" y="67.31543"/>
</g>
<path fill="none" stroke-width="1.066978" stroke-linecap="butt" stroke-linejoin="round" stroke="rgb(20%, 20%, 20%)" stroke-opacity="1" stroke-miterlimit="10" d="M 46.410156 209.152344 L 49.152344 209.152344 "/>
<path fill="none" stroke-width="1.066978" stroke-linecap="butt" stroke-linejoin="round" stroke="rgb(20%, 20%, 20%)" stroke-opacity="1" stroke-miterlimit="10" d="M 46.410156 136.59375 L 49.152344 136.59375 "/>
<path fill="none" stroke-width="1.066978" stroke-linecap="butt" stroke-linejoin="round" stroke="rgb(20%, 20%, 20%)" stroke-opacity="1" stroke-miterlimit="10" d="M 46.410156 64.039062 L 49.152344 64.039062 "/>
<path fill="none" stroke-width="1.066978" stroke-linecap="butt" stroke-linejoin="round" stroke="rgb(20%, 20%, 20%)" stroke-opacity="1" stroke-miterlimit="10" d="M 88.539062 221.589844 L 88.539062 218.847656 "/>
<path fill="none" stroke-width="1.066978" stroke-linecap="butt" stroke-linejoin="round" stroke="rgb(20%, 20%, 20%)" stroke-opacity="1" stroke-miterlimit="10" d="M 154.1875 221.589844 L 154.1875 218.847656 "/>
<path fill="none" stroke-width="1.066978" stroke-linecap="butt" stroke-linejoin="round" stroke="rgb(20%, 20%, 20%)" stroke-opacity="1" stroke-miterlimit="10" d="M 219.835938 221.589844 L 219.835938 218.847656 "/>
<path fill="none" stroke-width="1.066978" stroke-linecap="butt" stroke-linejoin="round" stroke="rgb(20%, 20%, 20%)" stroke-opacity="1" stroke-miterlimit="10" d="M 285.484375 221.589844 L 285.484375 218.847656 "/>
<path fill="none" stroke-width="1.066978" stroke-linecap="butt" stroke-linejoin="round" stroke="rgb(20%, 20%, 20%)" stroke-opacity="1" stroke-miterlimit="10" d="M 351.132812 221.589844 L 351.132812 218.847656 "/>
<g fill="rgb(30.196078%, 30.196078%, 30.196078%)" fill-opacity="1">
<use xlink:href="#glyph-0-4" x="80.539062" y="230.557617"/>
<use xlink:href="#glyph-0-5" x="86.539062" y="230.557617"/>
<use xlink:href="#glyph-0-6" x="88.539062" y="230.557617"/>
<use xlink:href="#glyph-0-7" x="91.539062" y="230.557617"/>
</g>
<g fill="rgb(30.196078%, 30.196078%, 30.196078%)" fill-opacity="1">
<use xlink:href="#glyph-0-8" x="147.6875" y="230.557617"/>
<use xlink:href="#glyph-0-9" x="153.6875" y="230.557617"/>
<use xlink:href="#glyph-0-10" x="158.6875" y="230.557617"/>
</g>
<g fill="rgb(30.196078%, 30.196078%, 30.196078%)" fill-opacity="1">
<use xlink:href="#glyph-0-11" x="211.835938" y="230.557617"/>
<use xlink:href="#glyph-0-12" x="217.835938" y="230.557617"/>
<use xlink:href="#glyph-0-13" x="222.835938" y="230.557617"/>
</g>
<g fill="rgb(30.196078%, 30.196078%, 30.196078%)" fill-opacity="1">
<use xlink:href="#glyph-0-14" x="274.484375" y="230.557617"/>
<use xlink:href="#glyph-0-10" x="281.484375" y="230.557617"/>
<use xlink:href="#glyph-0-15" x="283.484375" y="230.557617"/>
<use xlink:href="#glyph-0-16" x="288.484375" y="230.557617"/>
<use xlink:href="#glyph-0-6" x="293.484375" y="230.557617"/>
</g>
<g fill="rgb(30.196078%, 30.196078%, 30.196078%)" fill-opacity="1">
<use xlink:href="#glyph-0-17" x="342.632812" y="230.557617"/>
<use xlink:href="#glyph-0-5" x="350.632812" y="230.557617"/>
<use xlink:href="#glyph-0-18" x="352.632812" y="230.557617"/>
<use xlink:href="#glyph-0-7" x="354.632812" y="230.557617"/>
</g>
<g fill="rgb(0%, 0%, 0%)" fill-opacity="1">
<use xlink:href="#glyph-1-1" x="190.835938" y="242.990234"/>
<use xlink:href="#glyph-1-2" x="196.835938" y="242.990234"/>
<use xlink:href="#glyph-1-3" x="202.835938" y="242.990234"/>
<use xlink:href="#glyph-1-4" x="204.835938" y="242.990234"/>
<use xlink:href="#glyph-1-1" x="213.835938" y="242.990234"/>
<use xlink:href="#glyph-1-5" x="219.835938" y="242.990234"/>
<use xlink:href="#glyph-1-6" x="221.835938" y="242.990234"/>
<use xlink:href="#glyph-1-7" x="227.835938" y="242.990234"/>
<use xlink:href="#glyph-1-8" x="230.835938" y="242.990234"/>
<use xlink:href="#glyph-1-9" x="236.835938" y="242.990234"/>
<use xlink:href="#glyph-1-10" x="242.835938" y="242.990234"/>
</g>
<g fill="rgb(0%, 0%, 0%)" fill-opacity="1">
<use xlink:href="#glyph-2-1" x="12.951172" y="122.164062"/>
<use xlink:href="#glyph-2-2" x="12.951172" y="119.164062"/>
<use xlink:href="#glyph-2-1" x="12.951172" y="113.164062"/>
<use xlink:href="#glyph-2-3" x="12.951172" y="110.164062"/>
<use xlink:href="#glyph-2-4" x="12.951172" y="104.164062"/>
</g>
</svg>
